<svg xmlns="http://www.w3.org/2000/svg" xmlns:xlink="http://www.w3.org/1999/xlink" width="500" height="300" viewBox="0 0 500 300"><defs><clipPath id="a"><rect width="500" height="300" transform="translate(85 156)" fill="#fff" stroke="#707070" stroke-width="1"/></clipPath></defs><g transform="translate(-85 -156)" clip-path="url(#a)"><g transform="translate(51.087 132.591)"><path d="M65.878,66.158c0,6.136.686,6.743,7.271,6.945v1.753H49.2V73.1c6.215-.2,6.822-.809,6.822-6.945V33.186c0-6.136-.607-6.743-6.518-7.013V24.42H72.317c15.464,0,22.206,4.248,22.206,14.025,0,6.878-3.18,11.261-9.7,13.418-3.338,1.079-8.867,1.753-15.239,1.753H65.878Zm3.945-14.5c4.7,0,8.26-.944,10.463-2.765,2.427-2.09,3.709-5.664,3.709-10.047,0-8.294-4.473-12.474-13.261-12.474H65.878V51.661Z" fill="#1c95d4"/><path d="M101.008,62.922a16.279,16.279,0,0,0-1.663,6.2c0,2.63,2.124,3.843,7.125,3.978v1.753H86.994V73.1c4.922-.067,7.653-2.7,11.069-10.654l16.149-38.03,5.608-.539,16.52,41.334c1.742,4.181,3.18,6.338,4.922,7.147a13.793,13.793,0,0,0,4.012.742v1.753H120.562V73.1c4.776-.135,6.518-1.011,6.518-3.237v-.2a15.9,15.9,0,0,0-1.135-4.45L123.068,57.8H103.132l-2.124,5.125Zm12.429-29.668-9.249,21.914h17.891l-8.642-21.914Z" fill="#231815"/><path d="M167.234,66.158c0,6.136.607,6.743,6.822,6.945v1.753h-23.5V73.1c6.215-.2,6.822-.809,6.822-6.945V33.186c0-6.136-.607-6.743-6.518-7.013V24.42h23.2c6.372,0,11.676.742,14.7,2.023,4.776,2.023,6.968,5.259,6.968,10.249,0,8.159-5.686,12.407-17.655,13.216v.539a17.1,17.1,0,0,1,9.4,3.574c2.506,1.888,3.787,3.978,7.428,11.53,2.956,6.136,4.248,7.417,7.81,7.687v1.618H187.765c-3.562-9.44-5.686-14.43-7.878-18.206-2.427-4.181-4.776-5.6-9.631-5.6h-3.034v15.1ZM171.324,49.1c9.024,0,13.868-4.046,13.868-11.6s-4.315-11.126-13.34-11.126h-4.619V49.1Z" fill="#231815"/><path d="M221.311,62.922a16.279,16.279,0,0,0-1.663,6.2c0,2.63,2.124,3.843,7.125,3.978v1.753H207.3V73.1c4.922-.067,7.653-2.7,11.069-10.654l16.149-38.03,5.608-.539,16.52,41.334c1.742,4.181,3.18,6.338,4.922,7.147a13.793,13.793,0,0,0,4.012.742v1.753H240.865V73.1c4.776-.135,6.518-1.011,6.518-3.237v-.2a15.9,15.9,0,0,0-1.135-4.45L243.371,57.8H223.435l-2.124,5.125ZM233.74,33.253l-9.249,21.914h17.891L233.74,33.253Z" fill="#231815"/><path d="M270.781,73.1c6.136-.135,6.822-.809,6.822-7.013V33.186c0-6.2-.764-6.945-6.822-7.013V24.42h22.813c8.642,0,15.385,1.214,19.858,3.709,7.507,4.046,11.069,10.654,11.069,20.7,0,10.923-3.945,18.61-11.676,22.454-4.7,2.427-11.294,3.574-20.161,3.574h-21.9Zm22.06-.2c6.518,0,11.98-1.686,15.082-4.653,3.945-3.641,5.99-9.979,5.99-18.273,0-7.552-1.6-13.149-4.855-17.329s-9.024-6.271-17.048-6.271h-4.551V72.9h5.383Z" fill="#231815"/><path d="M329.331,73.1c6.6-.2,7.2-.809,7.2-7.013V33.186c0-6.136-.607-6.81-6.9-7.013V24.42H353.28v1.753c-6.293.2-6.9.877-6.9,7.013V66.091c0,6.2.685,6.81,7.2,7.013v1.753H329.331Z" fill="#231815"/><path d="M412.718,51.324v1.753c-2.731.067-3.945.337-4.776,1.079-.91.742-1.135,2.023-1.135,6v5.731c0,3.506.079,4.585.225,6.743a42.96,42.96,0,0,0-8.945,1.483,46.6,46.6,0,0,1-12.508,1.821c-16.52,0-26.376-9.44-26.376-25.42s10.609-27.106,27.061-27.106c3.866,0,5.686.27,11.676,1.551a14.684,14.684,0,0,0,3.405.4,12.082,12.082,0,0,0,4.473-.877V40.131l-2.81.067c-.753-4.046-1.821-6.743-3.787-9.17A15.415,15.415,0,0,0,386.87,25.3c-5.911,0-10.541,2.63-13.193,7.552-2.349,4.383-3.562,9.912-3.562,16.385,0,9.373,2.652,17.4,7.046,21.442a14.375,14.375,0,0,0,9.62,3.371,21.715,21.715,0,0,0,7.428-1.416,7.94,7.94,0,0,0,3.113-1.686V59.416c0-5.529-.686-6.136-6.968-6.338V51.324h22.364Z" fill="#231815"/><path d="M423.45,61.438c0,5.057.382,7.485,1.36,9.1,1.214,1.753,2.731,2.36,6.518,2.562v1.753H412.459V73.1c6.372-.337,7.878-2.63,7.878-11.665V33.051c0-3.641-.382-4.99-1.663-5.866-.91-.742-1.967-.944-4.922-1.011V24.42h18.116l16.6,38.03,16.823-38.03h17.363v1.753c-6.069.2-6.6.809-6.6,7.08V66.158c0,6.136.607,6.81,6.822,6.945v1.753h-23.42V73.1c6.136-.135,6.822-.809,6.822-6.945V28.938L446.724,73.576h-3.945l-19.329-44.1V61.438Z" fill="#231815"/><path d="M64.911,161.2c0,6.136.607,6.743,6.822,6.945V169.9h-23.5v-1.753c6.215-.2,6.822-.809,6.822-6.945V128.226c0-6.136-.607-6.743-6.518-7.013v-1.753h23.2c6.372,0,11.676.742,14.7,2.023,4.776,2.023,6.968,5.259,6.968,10.249,0,8.159-5.686,12.407-17.655,13.216v.539a17.1,17.1,0,0,1,9.4,3.574c2.506,1.888,3.787,3.978,7.428,11.53,2.956,6.136,4.248,7.417,7.81,7.687V169.9H85.443c-3.562-9.44-5.686-14.43-7.878-18.206-2.427-4.181-4.776-5.6-9.631-5.6H64.9v15.1ZM69,144.139c9.024,0,13.868-4.046,13.868-11.6s-4.315-11.126-13.34-11.126H64.911v22.723Z" fill="#1c95d4"/><path d="M104.683,168.144c6.6-.2,7.2-.809,7.2-7.013V128.226c0-6.136-.607-6.81-6.9-7.013v-1.753h23.645v1.753c-6.293.2-6.9.877-6.9,7.013v32.905c0,6.2.686,6.81,7.2,7.013V169.9H104.683v-1.753Z" fill="#231815"/><path d="M146.117,156.951c0,8.9,1.36,10.789,7.878,11.126V169.9H134.969v-1.821c6.439-.27,8.035-2.495,8.035-11.665V129.642c0-6.608-1.292-8.024-7.35-8.429v-1.753H151.5L182.427,158.3V132.946c0-5.057-.382-7.552-1.438-9.1-1.135-1.753-2.731-2.36-6.6-2.562v-1.821h19.172v1.821c-3.641.135-5.226.809-6.439,2.562-1.135,1.618-1.6,4.315-1.6,8.631v37.692h-5.608l-33.8-43.019v29.8Z" fill="#231815"/><path d="M247.968,146.364v1.753c-2.731.067-3.945.337-4.776,1.079-.91.742-1.135,2.023-1.135,6v5.731c0,3.506.079,4.585.225,6.743a42.96,42.96,0,0,0-8.946,1.483,46.6,46.6,0,0,1-12.508,1.821c-16.52,0-26.376-9.44-26.376-25.42s10.609-27.106,27.061-27.106c3.866,0,5.686.27,11.676,1.551a14.684,14.684,0,0,0,3.405.4,12.082,12.082,0,0,0,4.473-.877v15.643l-2.81.067c-.753-4.046-1.821-6.743-3.787-9.17a15.415,15.415,0,0,0-12.351-5.731c-5.911,0-10.541,2.63-13.193,7.552-2.349,4.383-3.562,9.912-3.562,16.385,0,9.373,2.652,17.4,7.046,21.442a14.375,14.375,0,0,0,9.62,3.371,21.716,21.716,0,0,0,7.428-1.416,7.94,7.94,0,0,0,3.113-1.686v-11.53c0-5.529-.686-6.136-6.968-6.338v-1.753h22.364Z" fill="#231815"/><path d="M252.238,154.051h3.034c1.056,10.114,5.608,14.9,14.093,14.9,6.675,0,10.687-3.506,10.687-9.305,0-4.585-2.956-7.35-12.429-11.463-6.439-2.765-8.181-3.641-9.934-4.787-4.315-2.832-6.215-6.069-6.215-10.721,0-5.529,3.405-10.317,8.945-12.609a24.639,24.639,0,0,1,9.7-1.551c2.506,0,3.562.135,9.249,1.146a12.014,12.014,0,0,0,7.2-.674l-.607,15.1h-3.034c-.3-3.843-.989-6.136-2.574-8.429a12.062,12.062,0,0,0-10.463-5.327c-5.833,0-9.856,3.574-9.856,8.766a7.326,7.326,0,0,0,2.506,5.664c1.9,1.618,3.787,2.63,9.856,5.192,6.743,2.765,10,4.585,12.587,6.878a12.138,12.138,0,0,1,3.945,9.373,12.8,12.8,0,0,1-5.3,10.856c-3.562,2.495-8.339,3.843-13.868,3.843a50.756,50.756,0,0,1-10.238-1.146,19.932,19.932,0,0,0-2.877-.2,27.31,27.31,0,0,0-5,.607l.607-16.115Z" fill="#231815"/><path d="M310.4,161.131c0,6.2.607,6.81,6.9,7.013V169.9H293.718v-1.753c6.215-.2,6.822-.809,6.822-7.013V128.159c0-6.069-.607-6.743-6.518-6.945v-1.753h22.971v1.753c-5.99.2-6.6.877-6.6,6.945v13.823h25.162V128.159c0-6.069-.607-6.743-6.6-6.945v-1.753H352v1.753c-5.99.2-6.6.877-6.6,6.945v32.972c0,6.2.607,6.81,6.822,7.013V169.9H328.646v-1.753c6.293-.2,6.9-.809,6.9-7.013V144.207H310.384v16.925Z" fill="#231815"/><path d="M358.359,168.144c6.6-.2,7.2-.809,7.2-7.013V128.226c0-6.136-.607-6.81-6.9-7.013v-1.753h23.645v1.753c-6.293.2-6.9.877-6.9,7.013v32.905c0,6.2.685,6.81,7.2,7.013V169.9H358.359Z" fill="#231815"/><path d="M406.312,161.131c0,6.136.753,6.878,7.125,7.013V169.9H389.713v-1.753c6.215-.2,6.822-.809,6.822-7.013V128.226c0-6.2-.764-6.945-6.822-7.013v-1.753h41.615l1.135,13.958-2.652.2c-1.821-9.1-5.99-12.2-16.453-12.2h-7.046v21.307h5.833c8.035,0,10.159-1.483,10.912-7.754h2.427v17.6h-2.427c-.91-6.541-2.731-7.889-10.912-7.889h-5.833Z" fill="#231815"/><path d="M466.121,161.131c0,6.2.753,6.878,7.878,7.013V169.9h-25.69v-1.753c7.046-.135,7.81-.809,7.81-7.013V121.214c-6.743.135-10.305,1.214-12.957,3.911-2.124,2.158-3.416,5.6-4.551,11.6l-2.731-.135,1.438-17.127H484.99l1.438,17.127-2.731.135c-1.214-6.541-2.731-10.047-5.226-12.137-2.652-2.293-6.069-3.237-12.351-3.371v39.918Z" fill="#231815"/><path d="M49.571,250.53h3.034c1.056,10.114,5.608,14.9,14.093,14.9,6.675,0,10.687-3.506,10.687-9.305,0-4.585-2.956-7.35-12.429-11.463-6.439-2.765-8.181-3.641-9.934-4.787-4.315-2.832-6.215-6.069-6.215-10.721,0-5.529,3.405-10.317,8.945-12.609a24.638,24.638,0,0,1,9.7-1.551c2.506,0,3.562.135,9.249,1.146a12.014,12.014,0,0,0,7.2-.674l-.607,15.1H80.262c-.3-3.843-.989-6.136-2.574-8.429a12.062,12.062,0,0,0-10.463-5.327c-5.833,0-9.856,3.574-9.856,8.766a7.326,7.326,0,0,0,2.506,5.664c1.9,1.618,3.787,2.63,9.856,5.192,6.743,2.765,10,4.585,12.587,6.878a12.138,12.138,0,0,1,3.945,9.373,12.8,12.8,0,0,1-5.3,10.856c-3.562,2.495-8.339,3.843-13.868,3.843a50.757,50.757,0,0,1-10.238-1.146,19.932,19.932,0,0,0-2.877-.2,27.308,27.308,0,0,0-5,.607l.607-16.115Z" fill="#1c95d4"/><path d="M91.04,264.623c6.136-.135,6.821-.809,6.821-7.013V224.7c0-6.2-.753-6.945-6.821-7.013v-1.753h41.615l1.36,14.362-2.652.067c-1.6-9.373-5.608-12.474-16.3-12.474h-7.428v21.173H113.1c8.181,0,10.159-1.416,10.991-7.754h2.427v17.6h-2.427c-.91-6.541-2.81-7.889-10.991-7.889h-5.462v23.4h8.339c10.238,0,14.475-3.506,16.677-14.025l2.506.27-1.6,15.711H91.04v-1.753Z" fill="#231815"/><path d="M157.816,257.677c0,6.136.607,6.743,6.822,6.945v1.753h-23.5v-1.753c6.215-.2,6.822-.809,6.822-6.945V224.7c0-6.136-.607-6.743-6.518-7.013v-1.753h23.2c6.372,0,11.676.742,14.7,2.023,4.776,2.023,6.968,5.259,6.968,10.249,0,8.159-5.686,12.407-17.655,13.216v.539a17.1,17.1,0,0,1,9.4,3.574c2.506,1.888,3.787,3.978,7.428,11.53,2.956,6.136,4.248,7.417,7.81,7.687v1.618H178.348c-3.562-9.44-5.686-14.43-7.878-18.206-2.427-4.181-4.776-5.6-9.631-5.6H157.8v15.1Zm4.091-17.059c9.024,0,13.868-4.046,13.868-11.6s-4.315-11.126-13.34-11.126h-4.619v22.723Z" fill="#231815"/><path d="M197.419,226.121c-2.731-6.675-4.091-7.957-8.945-8.429v-1.753h24.712v1.753c-.528.067-1.068.067-1.36.135-2.506.135-3.641.472-4.394,1.214a2.365,2.365,0,0,0-.832,1.821,19.33,19.33,0,0,0,1.6,6.069l12.047,31.017,12.2-30.14a18.442,18.442,0,0,0,1.6-6.338c0-1.551-.989-2.7-2.877-3.237a23.952,23.952,0,0,0-4.315-.539v-1.753h19.633v1.753c-2.877.2-4.394.809-6.069,2.293-1.663,1.551-3.416,4.383-5.08,8.361l-15.61,38.3h-6.069l-16.217-40.524Z" fill="#231815"/><path d="M251.957,264.623c6.6-.2,7.2-.809,7.2-7.013V224.7c0-6.136-.607-6.81-6.9-7.013v-1.753h23.645v1.753c-6.293.2-6.9.877-6.9,7.013V257.61c0,6.2.686,6.81,7.2,7.013v1.753H251.957v-1.753Z" fill="#231815"/><path d="M324.521,232.864c-.832-4.383-1.9-7.013-4.012-9.71a16.19,16.19,0,0,0-12.733-6.271,13.918,13.918,0,0,0-11.744,5.934c-2.956,4.383-4.394,10.249-4.394,17.6,0,14.969,6.822,24.207,17.958,24.207a19.166,19.166,0,0,0,14.778-6.945,22.292,22.292,0,0,0,3.338-5.529l2.2,1.079c-4.091,9.575-11.44,14.227-22.735,14.227-7.271,0-14.025-2.293-18.644-6.338-5.08-4.45-7.81-11.261-7.81-19.419,0-16.25,10.463-26.769,26.679-26.769,3.945,0,5.608.27,12.587,1.955a12.4,12.4,0,0,0,3.18.4c1.135,0,1.663-.135,4.091-.877v16.453h-2.731Z" fill="#231815"/><path d="M332.736,264.623c6.136-.135,6.822-.809,6.822-7.013V224.7c0-6.2-.764-6.945-6.822-7.013v-1.753h41.615l1.36,14.362-2.652.067c-1.6-9.373-5.608-12.474-16.3-12.474h-7.428v21.173H354.8c8.181,0,10.159-1.416,10.991-7.754h2.427v17.6h-2.427c-.91-6.541-2.81-7.889-10.991-7.889h-5.462v23.4h8.339c10.238,0,14.475-3.506,16.677-14.025l2.506.27-1.6,15.711H332.736v-1.753Z" fill="#231815"/><path d="M312.587,313.857c1.686,0,1.821-.225,1.821-2.113V297c0-1.742-.2-1.933-1.821-1.933v-.753A11.391,11.391,0,0,0,316.655,293l.337.191v9.552h.056a6.39,6.39,0,0,1,4.855-2.495c4.181,0,4.181,3.54,4.181,5.136v6.372c0,1.854.135,2.113,1.63,2.113v.865H321.9v-.865c1.461,0,1.6-.191,1.6-2.113V305.5c0-2.36-.225-3.956-2.495-3.956-1.349,0-2.72,1.158-4.012,2.776v7.473c0,1.877.135,2.079,1.517,2.079v.865h-5.922v-.865Z" fill="#231815"/><path d="M329.365,307.6c0-4.664,2.439-7.361,6.709-7.361s6.709,2.36,6.709,7.361c0,4.405-1.8,7.473-6.709,7.473S329.365,312.092,329.365,307.6Zm2.7.056c0,2.551.506,4.158,1.236,5.136a3.3,3.3,0,0,0,2.753,1.259c3.371,0,3.956-3.54,3.956-6.406,0-3.933-1.158-6.372-3.956-6.372-3.147,0-3.99,2.978-3.99,6.372Z" fill="#231815"/><path d="M344.761,313.857c1.91,0,2.023-.258,2.023-2.113V297c0-1.742-.112-1.933-2.023-1.933v-.753a12.453,12.453,0,0,0,4.27-1.315l.315.191v18.6c0,1.821.112,2.079,1.91,2.079v.865h-6.484v-.865Z" fill="#231815"/><path d="M363.045,301.753v-4.72c0-1.708-.135-1.967-1.821-1.967v-.787a9.494,9.494,0,0,0,4.046-1.292l.337.169v18.959c0,1.652.247,1.8,1.652,1.8v.753a12.131,12.131,0,0,0-3.821.427l-.225-.169-.09-1.6h-.056A5.343,5.343,0,0,1,359,315.07c-2.922,0-5.956-1.877-5.956-7.664,0-3.731,1.821-7.159,6.293-7.159a5.083,5.083,0,0,1,3.652,1.517h.056Zm0,1.63a4.181,4.181,0,0,0-3.259-1.967c-3.731,0-4.012,4.1-4.012,6.2,0,3.619,1.461,6.293,3.843,6.293a4.523,4.523,0,0,0,3.428-2.045Z" fill="#231815"/><path d="M374.621,300.427v11.35c0,1.854.112,2.079,1.91,2.079v.865h-6.518v-.865c1.877,0,2.023-.225,2.023-2.113V304.3c0-1.91-.112-1.967-2.023-1.967v-.787a11.046,11.046,0,0,0,4.293-1.315l.3.191Zm.135-3.765a1.69,1.69,0,0,1-1.6,1.91c-.865,0-1.573-.7-1.573-1.91s.674-1.91,1.573-1.91A1.7,1.7,0,0,1,374.756,296.662Z" fill="#231815"/><path d="M382.409,302.821a6.225,6.225,0,0,1,4.776-2.585c3.315,0,4.327,1.967,4.327,4.608v6.968c0,1.776.135,2.057,1.54,2.057v.865h-5.675v-.865c1.438,0,1.551-.191,1.551-2.113v-6.8c0-2.495-.787-3.428-2.585-3.428-1.259,0-2.663,1.124-3.933,2.776v7.473c0,1.877.056,2.079,1.495,2.079v.865H378v-.865c1.686,0,1.821-.191,1.821-2.113v-7.361c0-1.854-.169-2.079-1.821-2.057v-.787a9.25,9.25,0,0,0,3.877-1.315l.371.191.112,2.382h.056Z" fill="#231815"/><path d="M405.75,303.046a4.652,4.652,0,0,1,1.483,3.506c0,3.563-2.72,5.282-5.844,5.282a6.787,6.787,0,0,1-2.81-.562c-.843.539-1.315,1.068-1.315,1.686,0,.809.865,1.214,2.529,1.214h3.147c4.405,0,5.754,2.045,5.754,4.068,0,2.888-2.81,5.169-7.664,5.169-3.99,0-6.653-1.236-6.653-3.709,0-1.854,1.652-3.18,3.338-3.877-1.146-.225-2.27-.933-2.27-2.214s1.034-2.057,2.248-2.753a4.889,4.889,0,0,1-2.3-4.27c0-3.315,2.585-5.226,5.866-5.226a6.881,6.881,0,0,1,3.484.865l4.012-.472v1.427l-3-.135Zm-6.765,13.149c-1.495.933-2.382,1.967-2.382,3.259,0,1.8,1.821,2.944,4.574,2.944,3.562,0,5.361-1.742,5.361-3.562,0-1.236-.7-2.641-3.933-2.641h-3.619Zm5.619-9.631c0-2.135-1.068-4.158-3.315-4.158s-3.282,2.045-3.282,4.181c0,2.472,1.236,4.214,3.338,4.214s3.259-1.821,3.259-4.237Z" fill="#231815"/><path d="M412.133,310.687c.7,2.607,2.023,3.371,3.956,3.371,2.1,0,3.371-1.214,3.371-2.663a2.085,2.085,0,0,0-.584-1.517,14,14,0,0,0-3.147-1.742,15.278,15.278,0,0,1-3.169-2.023,3.741,3.741,0,0,1-.865-2.36c0-2.045,2.023-3.506,5.248-3.506a10.485,10.485,0,0,1,3.821.674c.112.809.258,1.742.506,3.057l-.9.169c-.449-2.248-1.349-2.866-3.225-2.866-1.124,0-2.944.506-2.944,2.023a2.389,2.389,0,0,0,1.236,1.877c.978.506,2.472,1.011,3.147,1.461,1.821.877,3.562,2.191,3.562,4.214,0,2.529-2.27,4.214-5.788,4.214a10.653,10.653,0,0,1-4.518-.865c-.169-1.236-.393-2.214-.618-3.282l.933-.225Z" fill="#231815"/><path d="M440.79,299.483c-.618-3.259-1.034-4.832-4.181-4.832-4.181,0-6.012,3.9-6.012,9.328,0,8.26,3.709,9.8,5.788,9.8,2.585,0,4.214-1.91,5.057-4.608l1.236.337a8.9,8.9,0,0,1-2.191,3.877,6.308,6.308,0,0,1-4.5,1.764,7.5,7.5,0,0,1-5.866-2.472c-1.652-1.967-2.416-4.742-2.416-8.563,0-7.08,3.394-10.642,8.822-10.642a12.121,12.121,0,0,1,4.776.955c.169,1.6.427,3.282.7,4.8Z" fill="#231815"/><path d="M444.948,307.6c0-4.664,2.439-7.361,6.709-7.361s6.709,2.36,6.709,7.361c0,4.405-1.8,7.473-6.709,7.473S444.948,312.092,444.948,307.6Zm2.7.056c0,2.551.506,4.158,1.236,5.136a3.3,3.3,0,0,0,2.753,1.259c3.371,0,3.956-3.54,3.956-6.406,0-3.933-1.158-6.372-3.956-6.372-3.147,0-3.989,2.978-3.989,6.372Z" fill="#231815"/><path d="M464.166,313.407a1.575,1.575,0,1,1-1.573-1.652A1.617,1.617,0,0,1,464.166,313.407Z" fill="#231815"/><path d="M467.425,317.621a4.1,4.1,0,0,0,1.652-2.944.925.925,0,0,1-.7.315c-.528,0-1.146-.506-1.146-1.495a1.569,1.569,0,0,1,1.573-1.6c1.09,0,1.6.877,1.6,1.989a5.04,5.04,0,0,1-2.472,4.349Z" fill="#231815"/><path d="M488.406,309.923l-.989,4.8H473.931v-.989c2.023,0,2.248-.225,2.248-2.27V297.112c0-2.045-.225-2.248-2.248-2.248v-.978H481.2v.978c-2.135,0-2.27.169-2.27,2.281v15c0,1.2.191,1.315.922,1.315h4.551c1.652,0,1.933-.225,2.753-3.54h1.236Z" fill="#231815"/><path d="M489.7,301.7v-.809c2.191-.2,3.034-1.382,3.675-4.36h.843V300.6h3.709v1.09h-3.709v9.743c0,1.686.562,2.416,1.742,2.416a3.623,3.623,0,0,0,2.191-.809l.539.787a4.957,4.957,0,0,1-3.484,1.236c-1.764,0-3.54-.73-3.54-3.54v-9.833H489.7Z" fill="#231815"/><path d="M509.983,301.753v-4.72c0-1.708-.135-1.967-1.821-1.967v-.787a9.495,9.495,0,0,0,4.046-1.292l.337.169v18.959c0,1.652.247,1.8,1.652,1.8v.753a12.131,12.131,0,0,0-3.821.427l-.225-.169-.09-1.6h-.056a5.343,5.343,0,0,1-4.068,1.742c-2.922,0-5.956-1.877-5.956-7.664,0-3.731,1.821-7.159,6.293-7.159a5.083,5.083,0,0,1,3.652,1.517h.056Zm0,1.63a4.181,4.181,0,0,0-3.259-1.967c-3.731,0-4.012,4.1-4.012,6.2,0,3.619,1.461,6.293,3.843,6.293a4.523,4.523,0,0,0,3.428-2.045Z" fill="#231815"/><path d="M519.592,313.407a1.575,1.575,0,1,1-1.573-1.652A1.617,1.617,0,0,1,519.592,313.407Z" fill="#231815"/></g></g></svg>